# xmcd
# 
# Track frame offsets:
#     225
#     20077
#     34515
#     48625
#     64817
#     82782
#     97623
#     111975
#     128166
#     143207
#     157807
#     172249
#     185745
#     203227
#     221101
#     243437
#     256407
#     269391
#     282534
#     296368
# 
# Disc length: 4132
# 
# Revision: 1
# Processed by: cddbd v1.5.2PL0 Copyright (c) Steve Scherf et al.
# Submitted via: BonkEnc v1.0
# 
DISCID=2e102114
DTITLE=Bernhard Brink - Schlager Gold
DYEAR=0
DGENRE=UnClassifiable
TTITLE0=Du entschuldige, ich kenn`dich
TTITLE1=Du natürlich
TTITLE2=Und dann fahren sie nach Ibiza
TTITLE3=Ich komm zu dir zurück
TTITLE4=Der Morgen kommt brstimmt
TTITLE5=Ich hab`den Koffer in der Hand
TTITLE6=Glaubst du, du findest den Weg
TTITLE7=Wenn du jemals frierst
TTITLE8=Nur ein Schritt nach vorne
TTITLE9=Ich hab`nur ein Leben zu leben
TTITLE10=Bin ich mein einziger Freund
TTITLE11=Fieber
TTITLE12=Einfach so
TTITLE13=Viel zu jung
TTITLE14=Doch dich vergess ich nie
TTITLE15=Frei sein
TTITLE16=Wenn das Feuer nur noch glimmt
TTITLE17=Julie
TTITLE18=Mehr als eine Nacht
TTITLE19=Letzter Aufruf
EXTD=
EXTT0=
EXTT1=
EXTT2=
EXTT3=
EXTT4=
EXTT5=
EXTT6=
EXTT7=
EXTT8=
EXTT9=
EXTT10=
EXTT11=
EXTT12=
EXTT13=
EXTT14=
EXTT15=
EXTT16=
EXTT17=
EXTT18=
EXTT19=
PLAYORDER=
